<svg xmlns="http://www.w3.org/2000/svg" width="312.022" height="300.188" viewBox="0 0 312.022 300.188"><defs><style>.a{fill:#231f20;}</style></defs><g transform="translate(-326.297 -159.168)"><path class="a" d="M482.182,459.356c-9.014,0-16.706-2.661-22.973-7.966-24.467-20.715-20.228-76.242-17.886-100.778-18.385,15.177-57.573,24.011-84.286,13.007-13.607-5.606-29.982-18.773-30.719-49.658-.638-26.8,13.491-48.334,38.763-59.088,27.009-11.493,60.143-8.047,80.172,7.649-12.789-32.977-11.764-64.749,3.008-84.028,8.465-11.047,25.536-23.166,58.819-18.167,17.051,2.56,29.394,11.273,35.7,25.2,7.961,17.58,7.186,49.008-11.766,80.881,18.486-10.435,55.773-27.771,81.552-15.337,13.706,6.614,22.1,20.684,24.966,41.819,3.175,23.467-3.246,40.652-19.089,51.086-27.736,18.261-74.181,9.442-92.4.752,15.828,35.55,19.135,63.638,9.824,83.522-6.6,14.1-19.525,23.824-38.411,28.908A58.917,58.917,0,0,1,482.182,459.356ZM442.9,343.723a3.846,3.846,0,0,1,1.669.385,3.764,3.764,0,0,1,2.109,3.783c-2.124,21.791-7.768,79.673,15.81,99.636,8.206,6.95,19.527,8.546,33.651,4.74,17.377-4.677,29.2-13.481,35.142-26.164,8.933-19.081,5.122-46.853-11.331-82.547a3.833,3.833,0,0,1,5.444-4.9c13.954,8.373,62.87,19.127,90.265,1.086,14.078-9.27,19.75-24.806,16.856-46.174-2.618-19.347-10.067-32.111-22.148-37.937C583.993,242.91,541.8,265.815,529.5,273.14a3.877,3.877,0,0,1-5.234-5.444c17.329-26.959,23.049-59.888,13.906-80.081-5.644-12.46-16.354-19.955-31.84-22.279-24.409-3.656-43.1,1.952-54.046,16.24-14.544,18.978-14.516,51.509.078,84.9a3.574,3.574,0,0,1-5.831,3.937c-17.757-17.922-51.924-22.6-79.465-10.88-13.67,5.816-36.487,20.606-35.681,54.3.539,22.606,9.819,37.778,27.584,45.1,28.009,11.536,67.464-.866,81.273-14.134A3.823,3.823,0,0,1,442.9,343.723Zm7.229-76.873,0,0h0Z"/><path class="a" d="M604.133,274.715c-3.15-9.855-9.012-16.425-17.415-19.527-22.419-8.285-57.28,9.966-76.062,21.581l-1,.615.083.139a23.15,23.15,0,0,0-17.18,3.616c1-4.223,2.031-10.571,1.18-16.522l.17.132c10.845-14,22.368-59.675,9.034-82.912-5.669-9.883-14.962-14.058-27.6-12.4-9.8,1.281-17.17,5.811-21.9,13.458-13.673,22.122-1.681,64.131,3.433,79.453a20.273,20.273,0,0,0,.289,10.2c-7.976-3.5-15.615-3.583-21.9-.289-9.67-7.085-57.649-12.858-83.22.965-12.442,6.725-17.881,16.851-16.17,30.1,1.583,12.227,7.837,20.378,18.585,24.229a47.087,47.087,0,0,0,15.8,2.413c25.31,0,57.733-14.311,70.11-25.305a39.568,39.568,0,0,0,12.344-2.492c-3.849,6.938-3.54,12.389-2.271,16.134-8.872,34.8-9.055,78.622,7.773,95.362a23.016,23.016,0,0,0,16.795,6.956,33.085,33.085,0,0,0,8.394-1.16c6.973-1.833,12.09-6.479,15.2-13.815,10.341-24.348-4.175-74.184-11.468-93.928a24.614,24.614,0,0,0,23.176,2.889,23.364,23.364,0,0,0,8.427-5.363c4.826,3.016,15.764,4.915,28.321,4.915,16.273,0,35.256-3.188,47.1-11.257C604.361,295.959,607.807,286.211,604.133,274.715ZM355.315,325.174c-9.781-3.5-15.476-10.961-16.927-22.168-1.567-12.106,3.431-21.373,14.858-27.549,24.221-13.088,68.884-8.287,79.658-1.745a21.1,21.1,0,0,0-8.515,15.562c-.679.122-1.423.256-2.228.4l-8.475-9.66c.018-.028.048-.041.066-.071a3.08,3.08,0,1,0-.988.942l7.938,9.044c-2.031.357-4.358.762-6.9,1.2l-16.957-13.607a2.951,2.951,0,0,0-1.187-3.5,2.994,2.994,0,1,0-3.17,5.079,2.95,2.95,0,0,0,3.687-.491l15.965,12.81c-3.482.6-7.292,1.253-11.242,1.927-2.183-1.889-5.2-3.991-8.7-6.406-2.274-1.567-4.616-3.208-6.986-4.943a2.769,2.769,0,0,0,.436-.458,2.994,2.994,0,1,0-4.125.955,2.948,2.948,0,0,0,2.555.246c2.537,1.869,5.1,3.659,7.4,5.241,3.054,2.107,5.73,3.97,7.791,5.644-2.664.453-5.368.914-8.059,1.37l-.213-.1c-2.869-1.352-10.341-5.345-14.286-7.467a2.954,2.954,0,0,0-1.248-3.347,2.994,2.994,0,1,0-3.17,5.079,2.956,2.956,0,0,0,3.811-.62c3.428,1.843,9.51,5.094,12.959,6.816-3.714.63-7.356,1.246-10.774,1.823-2.4-2.145-7.29-5.768-10.235-7.913a2.955,2.955,0,0,0-1.147-3.611,3,3,0,0,0-3.173,5.082,2.957,2.957,0,0,0,3.616-.415c2.638,1.922,6.816,5.016,9.32,7.13-2.423.408-4.692.79-6.778,1.139l-.137-.086a100.525,100.525,0,0,1-8.533-6.636,2.977,2.977,0,1,0-.456,1.274c1.808,1.529,4.8,4,7.318,5.755l-8.4,1.41a2.913,2.913,0,0,0-1.094-1.329,2.995,2.995,0,1,0,.957,4.125,2.915,2.915,0,0,0,.4-1.557c1.6-.268,4.231-.709,7.535-1.266a41.579,41.579,0,0,0-2.907,7.014,2.964,2.964,0,1,0,1.21.415l-.01,0a41.862,41.862,0,0,1,3.3-7.692l1.805-.3.77.023-.185-.122,5.489-.924c-1.033,1.7-2.053,5.158-3.411,10.452-.1.385-.193.744-.281,1.089a3.028,3.028,0,1,0,1.182.481c.1-.392.21-.805.324-1.253.729-2.838,2.664-10.379,3.793-10.749l1.008-.332-.116-.111c3.016-.509,6.2-1.046,9.434-1.6-2.281,3.636-5.272,11.756-6.487,15.544a2.961,2.961,0,0,0-3.765,1.089,3,3,0,0,0,5.082,3.173,2.964,2.964,0,0,0-.279-3.487c1.231-4.206,5.406-14.577,6.983-16.577.684-.116,1.365-.233,2.048-.347l.975-.02-.228-.109c2.183-.37,4.363-.739,6.517-1.107-2.345,2.99-5.525,10.032-7.118,13.739a3.015,3.015,0,1,0,1.144.547c2.058-4.788,5.712-12.665,7.708-14.324l.39-.324c3.747-.641,7.366-1.258,10.675-1.831l-10.05,15.932a2.96,2.96,0,0,0-3.241,1.286,2.994,2.994,0,1,0,5.079,3.17,2.96,2.96,0,0,0-.7-3.887l10.591-16.79c2.527-.438,4.834-.841,6.847-1.2l-5.135,11.126a2.958,2.958,0,0,0-2.745,1.362,2.994,2.994,0,1,0,4.125-.955c-.048-.03-.1-.03-.149-.056l5.421-11.744,1.717-.306c0,.041-.008.079-.008.119-.129,5.3,1.8,9.343,5.588,11.675a16.415,16.415,0,0,0,6.783,2.124C420.2,317.41,378.8,333.585,355.315,325.174Zm140.958,79.488c-2.79,6.576-7.34,10.733-13.516,12.356-9.232,2.418-16.891.7-22.76-5.143-15.689-15.607-15.808-56.4-7.837-89.978,3.9,6.173,11.3,9.4,16.965,10.305a13.269,13.269,0,0,0,2.086.172c.248,0,.481-.056.724-.071.076,1.18.17,2.851.279,5l-10.632,7.214c-.025-.023-.035-.053-.061-.076a3.09,3.09,0,1,0,.81,1.1l9.958-6.758c.1,2.059.218,4.418.339,7l-15.6,15.144a2.954,2.954,0,0,0-3.628.742,2.994,2.994,0,1,0,4.649,3.775,2.947,2.947,0,0,0-.028-3.717l14.683-14.258c.165,3.527.342,7.388.522,11.392-2.145,1.932-4.6,4.672-7.434,7.847-1.838,2.059-3.752,4.183-5.765,6.317a2.961,2.961,0,0,0-.405-.489,2.994,2.994,0,1,0,.438,4.213,2.947,2.947,0,0,0,.56-2.507c2.17-2.286,4.261-4.613,6.117-6.692,2.466-2.77,4.646-5.2,6.563-7.031.122,2.7.243,5.441.362,8.168l-.122.2c-1.7,2.679-6.583,9.6-9.176,13.253a2.958,2.958,0,0,0-3.479.823,2.994,2.994,0,1,0,4.649,3.775,2.953,2.953,0,0,0-.144-3.856c2.254-3.175,6.231-8.8,8.368-12.015.165,3.765.324,7.452.474,10.916-2.426,2.119-6.624,6.517-9.115,9.174a2.957,2.957,0,0,0-3.725.694,2.994,2.994,0,1,0,4.649,3.775,2.955,2.955,0,0,0,.035-3.639c2.236-2.383,5.821-6.143,8.227-8.366.106,2.446.205,4.755.294,6.867l-.1.122a100.65,100.65,0,0,1-7.639,7.647,2.983,2.983,0,1,0,1.205.613c1.742-1.605,4.56-4.269,6.614-6.548.162,3.79.289,6.766.362,8.51a2.894,2.894,0,0,0-1.453.919,2.994,2.994,0,1,0,4.213-.438,2.919,2.919,0,0,0-1.5-.593c-.073-1.739-.185-4.383-.322-7.634a41.54,41.54,0,0,0,6.6,3.752,2.961,2.961,0,1,0,.56-1.15l-.005.01a41.95,41.95,0,0,1-7.224-4.221l-.078-1.823.119-.77-.144.172c-.076-1.75-.154-3.618-.238-5.563,1.557,1.233,4.867,2.674,9.956,4.679l1.041.41a3.025,3.025,0,1,0,.623-1.114l-1.2-.476c-2.73-1.074-9.974-3.927-10.2-5.094l-.2-1.038-.122.1c-.134-3.064-.273-6.287-.418-9.561,3.327,2.712,11.014,6.685,14.622,8.361a2.961,2.961,0,0,0,.615,3.871,3,3,0,1,0,3.775-4.651,2.961,2.961,0,0,0-3.494-.154c-4.023-1.742-13.8-7.168-15.585-8.981l-.091-2.056.1-.993-.139.218c-.1-2.213-.2-4.423-.291-6.6,2.676,2.7,9.27,6.72,12.751,8.761a2.967,2.967,0,0,0,.9,3.327,3,3,0,1,0-.218-4.4c-4.5-2.633-11.863-7.237-13.26-9.419l-.271-.425c-.172-3.8-.339-7.464-.5-10.819l14.564,11.939a2.963,2.963,0,0,0,.874,3.378,2.994,2.994,0,1,0,3.775-4.649,2.958,2.958,0,0,0-3.942.215l-15.352-12.589c-.119-2.557-.233-4.9-.337-6.938l10.4,6.472a2.932,2.932,0,1,0,.577-1.322c-.035.043-.043.1-.076.142l-10.981-6.834c-.106-2.076-.2-3.7-.271-4.859a11.065,11.065,0,0,0,5.988-3.226c3.78-3.808,5.515-9.976,6.072-15.093C492.544,333.884,506.164,381.385,496.274,404.662Zm-24.363-94.7a16.408,16.408,0,1,1,16.405-16.408A16.409,16.409,0,0,1,471.91,309.959Zm5.029-60.516c-.025-1.182-.051-2.957-.073-5.249l10.926-6.763c.023.023.033.056.058.078a3.087,3.087,0,1,0-.765-1.132l-10.232,6.335c-.015-2.059-.03-4.421-.046-7l16.218-14.476a2.954,2.954,0,0,0,3.656-.592,2.994,2.994,0,1,0-4.487-3.965,2.95,2.95,0,0,0-.127,3.717L476.8,234.023c-.018-3.535-.03-7.4-.043-11.4,2.221-1.843,4.793-4.474,7.756-7.528,1.922-1.98,3.925-4.023,6.026-6.072a2.81,2.81,0,0,0,.382.5,2.994,2.994,0,1,0-.261-4.226,2.943,2.943,0,0,0-.663,2.481c-2.264,2.193-4.454,4.431-6.393,6.431-2.583,2.664-4.862,4.993-6.852,6.748-.008-2.7-.013-5.446-.018-8.178l.129-.187c1.808-2.605,6.981-9.318,9.723-12.858a2.957,2.957,0,0,0,3.509-.676,2.994,2.994,0,1,0-4.487-3.965,2.955,2.955,0,0,0-.018,3.859c-2.385,3.076-6.593,8.535-8.862,11.655-.008-3.77-.013-7.462-.018-10.931,2.512-2.013,6.89-6.231,9.493-8.784a2.948,2.948,0,0,0,3.75-.534,2.995,2.995,0,1,0-4.487-3.968,2.953,2.953,0,0,0-.187,3.636c-2.332,2.284-6.072,5.89-8.568,8.009-.005-2.454-.005-4.755-.008-6.869l.109-.119a101.012,101.012,0,0,1,7.953-7.32,2.979,2.979,0,1,0-1.18-.661c-1.81,1.529-4.737,4.077-6.885,6.267,0-3.79,0-6.778,0-8.518a2.925,2.925,0,0,0,1.489-.858,2.995,2.995,0,1,0-4.226.261,2.9,2.9,0,0,0,1.471.653c0,1.638,0,4.277,0,7.642A41.386,41.386,0,0,0,469,184.486a2.962,2.962,0,1,0-.608,1.124l.005-.01a41.813,41.813,0,0,1,7.042,4.522l0,1.82-.152.767.152-.167c0,1.752,0,3.616.005,5.57-1.5-1.3-4.745-2.874-9.741-5.087-.377-.167-.7-.311-1.033-.461a3.031,3.031,0,1,0-.671,1.086c.38.17.755.339,1.19.532,2.676,1.185,9.789,4.335,9.969,5.51l.162,1.048.127-.1c.005,3.064.01,6.285.015,9.569-3.211-2.849-10.723-7.138-14.258-8.963a2.962,2.962,0,0,0-.453-3.894,3,3,0,1,0-3.968,4.489,2.965,2.965,0,0,0,3.484.3c3.945,1.907,13.483,7.735,15.2,9.624l.005,2.074-.142.967.144-.208c0,2.216.008,4.429.015,6.614-2.562-2.808-8.981-7.1-12.374-9.29a2.976,2.976,0,0,0-4.988-3.1,2.972,2.972,0,0,0,4.259,4.14c4.383,2.821,11.549,7.728,12.855,9.969l.253.438c.013,3.806.025,7.47.043,10.83l-14.053-12.541a2.963,2.963,0,0,0-.732-3.411,2.995,2.995,0,1,0-3.968,4.487,2.964,2.964,0,0,0,3.95-.048l14.81,13.217c.013,2.562.028,4.9.046,6.948l-10.121-6.9a2.931,2.931,0,1,0-.63,1.294c.035-.041.046-.094.078-.137L475.6,244.4c.02,2.193.043,3.9.071,5.056-9.852.195-14.6,4.439-16.82,8.037-.21.339-.375.691-.555,1.041-5.375-16.929-15.012-54.383-2.7-74.3,4.307-6.968,11.06-11.1,20.066-12.28,11.533-1.5,19.968,2.241,25.08,11.151,11.926,20.783,2.56,63.022-7.647,78.412a17.881,17.881,0,0,0-2.79-5.933C487.383,251.623,482.876,249.575,476.939,249.443Zm115.8,51.37C573,314.255,531,313.648,520.4,307.308a20.175,20.175,0,0,0,4.294-12.354c1.155-.339,2.952-.846,5.269-1.491l9.624,8.6c-.015.03-.046.048-.061.078a2.911,2.911,0,0,0,1.408,3.95,3.1,3.1,0,0,0,4.087-1.362,2.911,2.911,0,0,0-1.408-3.95,3.118,3.118,0,0,0-3.185.337l-9.017-8.057c2.023-.56,4.342-1.2,6.877-1.891l18.656,11.607a2.883,2.883,0,0,0,1.58,3.317,3.1,3.1,0,0,0,4.087-1.362,2.914,2.914,0,0,0-1.41-3.953,3.076,3.076,0,0,0-3.687.861l-17.56-10.926c3.469-.947,7.264-1.98,11.2-3.046,2.418,1.631,5.715,3.388,9.536,5.4,2.464,1.3,5.011,2.664,7.591,4.117a2.862,2.862,0,0,0-.39.494,2.913,2.913,0,0,0,1.408,3.953,3.1,3.1,0,0,0,4.087-1.362,2.914,2.914,0,0,0-1.408-3.953,3.1,3.1,0,0,0-2.618.02c-2.778-1.577-5.581-3.069-8.08-4.388-3.314-1.75-6.224-3.3-8.49-4.727,2.654-.719,5.345-1.448,8.024-2.172l.236.081c3.054,1.025,11.052,4.173,15.286,5.849a2.892,2.892,0,0,0,1.623,3.155,3.1,3.1,0,0,0,4.087-1.362,2.91,2.91,0,0,0-1.41-3.95,3.075,3.075,0,0,0-3.8,1c-3.664-1.451-10.169-4.011-13.865-5.35,3.7-1,7.328-1.978,10.731-2.894,2.659,1.854,8,4.9,11.222,6.71a2.882,2.882,0,0,0,1.55,3.423,3.1,3.1,0,0,0,4.087-1.362,2.914,2.914,0,0,0-1.408-3.953,3.083,3.083,0,0,0-3.623.777c-2.874-1.61-7.437-4.213-10.209-6.031,2.411-.651,4.672-1.258,6.75-1.818l.154.078a102.8,102.8,0,0,1,9.356,5.626,2.926,2.926,0,0,0,1.7,2.7,3.1,3.1,0,0,0,4.087-1.362,2.911,2.911,0,0,0-1.408-3.95,3.1,3.1,0,0,0-4.046,1.309c-1.988-1.312-5.287-3.423-8.029-4.889,3.725-1,6.662-1.79,8.368-2.248a2.908,2.908,0,0,0,1.246,1.185,3.1,3.1,0,0,0,4.087-1.362,2.911,2.911,0,0,0-1.408-3.95,3.1,3.1,0,0,0-4.087,1.362,2.788,2.788,0,0,0-.243,1.562l-7.543,2.028a41.081,41.081,0,0,0,2.223-7.186,3.062,3.062,0,0,0,2.826-1.646,2.91,2.91,0,0,0-1.41-3.95,3.1,3.1,0,0,0-4.084,1.362,2.911,2.911,0,0,0,1.408,3.95l.02.005a39.616,39.616,0,0,1-2.53,7.88c-.585.157-1.185.319-1.805.484l-.808.061.208.1c-1.717.463-3.547.955-5.464,1.471.861-1.777,1.527-5.272,2.34-10.591.061-.395.116-.762.172-1.114a3.074,3.074,0,0,0,2.922-1.656,2.915,2.915,0,0,0-1.41-3.953,3.107,3.107,0,0,0-4.087,1.362,2.9,2.9,0,0,0,1.347,3.907c-.063.4-.127.81-.195,1.261-.438,2.856-1.6,10.447-2.7,10.926l-1.005.433.129.1c-3.005.81-6.178,1.666-9.4,2.537,1.922-3.813,4.089-12.085,4.92-15.921a3.063,3.063,0,0,0,3.715-1.456,2.915,2.915,0,0,0-1.408-3.953,3.106,3.106,0,0,0-4.087,1.365,2.851,2.851,0,0,0,.666,3.4c-.805,4.266-3.932,14.855-5.33,16.977-.681.182-1.36.367-2.043.552l-1.023.124.251.084-6.477,1.755c2.061-3.19,4.535-10.424,5.753-14.217a3.056,3.056,0,0,0,3.112-1.608,2.914,2.914,0,0,0-1.41-3.953,3.107,3.107,0,0,0-4.087,1.362,2.88,2.88,0,0,0,1.188,3.788c-1.58,4.915-4.446,13-6.289,14.835l-.365.362c-3.745,1.015-7.358,2-10.662,2.9l8.5-16.671a3.05,3.05,0,0,0,3.165-1.6,2.91,2.91,0,0,0-1.41-3.95,3.1,3.1,0,0,0-4.084,1.362,2.872,2.872,0,0,0,1.132,3.747l-8.956,17.56c-2.527.691-4.834,1.324-6.844,1.881l4.023-11.442a3.03,3.03,0,0,0,2.654-1.623,2.914,2.914,0,0,0-1.408-3.953,3.107,3.107,0,0,0-4.087,1.362,2.912,2.912,0,0,0,1.41,3.953c.053.025.114.02.167.043L529.428,292.3c-2.066.575-3.679,1.031-4.813,1.36a17.433,17.433,0,0,0-10.384-14.721c-.456-.21-.929-.354-1.4-.527,31.372-19.243,57.287-26.66,73-20.849,7.637,2.821,12.979,8.849,15.881,17.922C605.067,285.952,602.044,294.473,592.737,300.813Z" transform="translate(14.202 15.192)"/><path class="a" d="M393.474,215.449a6.888,6.888,0,1,0,6.885,6.887A6.9,6.9,0,0,0,393.474,215.449Z" transform="translate(92.362 86.224)"/></g></svg>