<svg xmlns="http://www.w3.org/2000/svg" width="241.563" height="207.853" viewBox="0 0 241.563 207.853"><defs><style>.a{fill:#231f20;}</style></defs><path class="a" d="M353.109,149.557C332.41,101.611,253.8,108.444,242.7,159.9c-21.024,18.727-46.145,49.678-31.4,78.877-17.072-28.464,6.58-61.506,27.312-81.237,12.093-56.087,97.7-62.947,119.725-10.3,13.478,27.4-.349,94.643,22.1,120.469a68.823,68.823,0,0,0,11.1-13.382c30.758-48.8.222-140.984-54.122-162C259.522,62.2,145.888,183.343,164.176,239.042c6.387,19.454,30.442,35.7,60.965,45.683-2.107-22.83,5.125-45.742,28.379-56.057,20.216-10.359,43.7-12.61,63.027-24.753,19.764-11.6,24.619-38.8,12.8-57.781-26.752-42.413-98.321-6.148-73.937,44.5l-.362.171c-29.89-51.657,48.483-94.931,77.635-46.523,12.334,20.477,5.948,49.185-15.389,60.826-48.584,23.795-93.826,24.754-89.926,80.334,50.247,15.775,116.967,14.71,151.736-16.477C354.875,244.472,366.105,176.7,353.109,149.557Zm-136.522,57.97c-.18,3.188-.447,7.857-.865,10.986A16.718,16.718,0,0,1,216.587,207.527Zm-1.915,30.193c6.929-20.592,33.059-5.288,46.184-16.268C250.579,237.857,225.411,221.89,214.672,237.72Zm3.755-16.268a48.72,48.72,0,0,1,11.441.271C226.1,222.39,222.1,222.631,218.427,221.452Zm50.855-74.115c4.508,2.206,8.056,14.811,17.871,17.663,14.118,4.1,30.317,8.541,36.025-4.545-6.6,25.058-33.442-1.494-49.127,17.079a8.376,8.376,0,0,0-.532-5C263.682,168.251,270.89,155.239,269.282,147.337Zm3.532,52.648a8.839,8.839,0,0,1-3.192,7.492,60.656,60.656,0,0,0,17.531,6.692,17.735,17.735,0,0,1-17.677-6.575,4.438,4.438,0,0,1-5.892-.1c-3.589-2.675-9.56-2.988-12.028-7.366v0a2.34,2.34,0,0,1-.159-1.331C251.531,190.957,273.2,190.154,272.814,199.985Zm3.764,14.041.089.286c-13.115,6.445-27.421-1.638-37.76-9.766-5.454,2.576-10.9,5.447-15.18,9.629,7.534,1.653,15.076,2.809,22.669,4.235a38.908,38.908,0,0,1-23.212-3.727c-5.943,5.57-9.455,13.193-12.027,20.814a35.252,35.252,0,0,1,10.278-23.311c-.214-7.585,1.109-15.668,5.23-22.153-1.543,7.043-2.776,14.526-4.537,21.506a42.731,42.731,0,0,1,15.867-8.777c-.436-15.389-.3-31.473,6.926-45.472l.28.11c-2.219,14.623-7.559,30.105-5.94,44.955a92.589,92.589,0,0,0,8.857-2.923,35.472,35.472,0,0,1-7.474,4.285C251.752,209.547,263.547,216.453,276.578,214.026Z" transform="translate(-162.215 -87.583)"/></svg>